<svg fill="currentColor" viewBox="0 0 24 24" xmlns="http://www.w3.org/2000/svg"><path d="M10.2 3.2C8.1 5.3 8.9 7 12 7s3.9-1.7 1.8-3.8c-1.5-1.5-2.1-1.5-3.6 0m-4.4.9C3.7 5.3 3.4 7 5.4 7c.7 0 1.6-.9 1.9-2s.4-2 .4-2c-.1 0-1 .5-1.9 1.1m10.9.9c.3 1.1 1.2 2 1.9 2 2 0 1.7-1.8-.5-2.9-1.6-.9-1.8-.8-1.4.9M2 12c0 2.3.4 3 2 3s2-.7 2-3-.4-3-2-3-2 .7-2 3m6 0c0 2.8.2 3 4 3s4-.2 4-3-.2-3-4-3-4 .2-4 3m10 0c0 2.3.4 3 2 3s2-.7 2-3-.4-3-2-3-2 .7-2 3M4 18c0 .5.9 1.4 1.9 1.9 1.6.9 1.8.8 1.4-.9-.5-2-3.3-2.9-3.3-1m5 .4c0 .7.7 2 1.6 2.7 1.4 1.1 1.8 1 3-.6 2.1-2.8 1.7-3.5-1.6-3.5-1.9 0-3 .5-3 1.4m7.7.6c-.4 1.7-.2 1.8 1.4.9 2.2-1.1 2.5-2.9.5-2.9-.7 0-1.6.9-1.9 2"/></svg>
